<?xml version="1.0" standalone="no"?>
<!DOCTYPE svg PUBLIC "-//W3C//DTD SVG 20010904//EN"
 "http://www.w3.org/TR/2001/REC-SVG-20010904/DTD/svg10.dtd">
<svg version="1.0" xmlns="http://www.w3.org/2000/svg"
 width="532.000000pt" height="600.000000pt" viewBox="0 0 532.000000 600.000000"
 preserveAspectRatio="xMidYMid meet">

<g transform="translate(0.000000,600.000000) scale(0.100000,-0.100000)"
fill="#000000" stroke="none">
<path d="M550 5716 c0 -21 6 -25 51 -31 27 -4 53 -4 56 -1 3 3 -2 17 -11 31
-13 20 -25 25 -56 25 -36 0 -40 -3 -40 -24z"/>
<path d="M2327 5720 c-52 -10 -97 -56 -103 -106 -6 -40 46 -175 241 -629 40
-93 100 -244 135 -335 34 -91 108 -275 165 -410 57 -135 119 -283 138 -330 28
-68 37 -81 43 -65 4 11 20 49 36 85 l29 65 -43 39 c-24 21 -52 42 -64 46 -14
6 -35 43 -68 127 -27 65 -54 127 -61 139 -18 29 -105 236 -105 250 0 14 -89
235 -100 249 -5 6 -26 55 -48 110 -22 55 -81 198 -131 317 -94 225 -104 264
-76 318 22 43 147 80 273 80 40 0 42 1 42 30 l0 30 -132 -1 c-73 -1 -150 -5
-171 -9z"/>
<path d="M997 5679 c-3 -24 -3 -153 0 -286 l6 -243 35 0 34 0 -4 225 c-3 124
-3 237 0 252 l5 26 151 -6 c83 -4 166 -12 184 -18 51 -18 49 -3 -4 31 -67 42
-99 49 -260 56 l-141 7 -6 -44z"/>
<path d="M3350 5693 c0 -27 4 -31 38 -37 20 -3 55 -6 78 -6 22 0 62 -6 89 -14
l47 -15 -23 26 c-37 39 -94 63 -164 70 l-65 6 0 -30z"/>
<path d="M4135 5694 c-38 -14 -78 -28 -87 -31 -19 -6 -23 -23 -9 -38 15 -17
166 -392 266 -660 114 -306 196 -480 259 -550 l45 -50 -54 105 c-61 120 -104
226 -200 490 -67 183 -158 410 -211 525 -16 33 -28 63 -29 67 0 3 34 23 75 45
74 38 75 39 78 81 3 42 3 42 -30 42 -18 -1 -64 -12 -103 -26z"/>
<path d="M1370 5361 c0 -11 -11 -56 -25 -101 -24 -74 -26 -91 -22 -233 4 -194
36 -367 67 -367 16 0 8 712 -7 717 -8 3 -13 -4 -13 -16z"/>
<path d="M3717 5061 c-53 -126 -97 -235 -97 -241 0 -7 18 -10 51 -8 l50 3 79
178 78 178 -26 59 c-14 33 -28 60 -32 60 -3 0 -50 -103 -103 -229z"/>
<path d="M998 5074 c-9 -9 -10 -447 -2 -520 5 -42 11 -54 31 -63 13 -6 28 -11
33 -11 6 0 10 102 10 259 0 143 4 262 9 265 8 6 100 -7 136 -19 13 -4 5 7 -19
29 -22 20 -56 40 -75 46 -60 16 -116 22 -123 14z"/>
<path d="M1751 4703 c-6 -16 -20 -44 -30 -63 -11 -19 -26 -81 -35 -139 -8 -56
-17 -105 -20 -108 -3 -3 -217 -5 -477 -5 -418 1 -474 -1 -496 -15 -13 -9 -52
-19 -85 -22 -34 -3 -63 -11 -65 -17 -4 -13 970 -29 1114 -18 l91 7 6 31 c25
123 46 298 41 334 -7 49 -28 56 -44 15z"/>
<path d="M3554 4663 c-33 -75 -74 -202 -74 -228 0 -29 20 -53 50 -60 24 -6 27
-1 58 77 17 46 41 108 51 138 l19 55 144 8 c79 4 176 5 216 2 l72 -6 -13 33
-13 33 -242 3 -242 2 -26 -57z"/>
<path d="M3336 4258 c-148 -323 -188 -414 -216 -483 -17 -43 -67 -157 -111
-253 -44 -95 -107 -237 -140 -315 -119 -279 -123 -287 -144 -287 -27 0 -20
-167 11 -277 l27 -93 108 0 c107 0 130 -8 89 -30 -11 -6 -20 -14 -20 -18 0 -5
122 -9 270 -11 l270 -2 0 98 c0 146 -5 150 -109 68 -46 -36 -86 -64 -88 -61
-2 2 10 52 27 111 17 59 30 109 28 110 -2 2 -38 31 -82 64 l-79 61 105 0 105
0 21 70 c22 73 20 126 -9 218 l-11 32 -189 0 c-104 0 -189 2 -189 5 0 2 5 16
12 30 l11 25 169 0 c137 0 168 3 168 14 0 28 -82 250 -119 325 -36 71 -38 78
-25 104 8 15 17 27 19 27 13 0 124 -239 160 -345 l41 -120 295 -3 c161 -1 299
0 306 3 21 7 -98 169 -200 273 -51 52 -123 119 -162 150 -72 58 -239 163 -313
196 -23 10 -42 23 -42 29 0 9 80 209 104 257 12 25 14 25 149 28 80 1 137 7
137 12 0 6 -15 10 -34 10 -36 0 -101 23 -111 40 -3 6 -49 10 -106 10 l-100 0
-33 -72z"/>
<path d="M4180 4280 c-14 -5 -42 -11 -62 -15 -32 -5 -38 -10 -38 -30 l0 -25
333 6 c182 4 334 9 337 11 3 3 -10 18 -28 34 l-32 29 -243 -1 c-133 0 -253 -4
-267 -9z"/>
<path d="M2167 3883 c-70 -105 -184 -345 -219 -460 l-31 -103 -317 0 -317 0
-11 -25 -12 -25 321 0 c300 0 320 -1 315 -17 -3 -10 -14 -72 -26 -138 -11 -66
-24 -133 -28 -150 l-9 -30 -102 2 -102 2 73 -56 c40 -30 76 -59 81 -62 4 -4
-8 -53 -27 -109 -19 -56 -32 -102 -29 -102 3 0 23 14 44 31 l39 31 0 -91 0
-91 -380 0 -380 0 0 -30 0 -30 379 0 378 0 6 -67 c10 -105 8 -145 -9 -196
l-16 -46 -96 -3 -97 -3 75 -54 c41 -30 77 -55 79 -57 2 -2 -12 -49 -32 -106
-20 -56 -35 -103 -34 -104 1 -2 39 24 85 57 45 33 86 58 91 55 5 -3 14 -35 20
-69 6 -35 18 -86 26 -113 8 -27 15 -51 15 -54 0 -3 -145 -4 -321 -3 -177 2
-325 0 -330 -3 -5 -3 -5 -14 1 -25 10 -18 24 -19 338 -19 l327 0 34 -98 c64
-183 169 -376 269 -491 124 -143 178 -178 293 -186 l84 -6 -83 34 c-120 50
-179 94 -265 196 -74 88 -167 233 -202 316 -25 58 -75 207 -75 222 0 10 52 13
258 13 245 0 258 1 259 19 1 16 -9 19 -74 25 -41 4 -162 6 -269 5 -107 -1
-196 0 -198 2 -6 7 -43 179 -39 179 3 0 19 -12 36 -26 17 -15 33 -22 35 -16 1
5 -6 46 -18 90 -11 44 -20 87 -20 95 0 8 35 39 78 68 l77 54 -104 5 -104 5
-22 75 c-12 41 -25 110 -28 153 l-5 77 306 0 c238 1 314 4 337 15 17 7 24 14
16 14 -8 1 -12 4 -8 7 7 7 97 -45 97 -57 0 -5 -13 -50 -30 -101 -16 -51 -28
-93 -27 -94 1 -2 30 18 64 44 l62 47 0 145 c0 134 -1 143 -15 118 -14 -28 -16
-28 -112 -28 l-97 -1 29 -23 c15 -13 24 -25 20 -27 -5 -2 -152 -3 -326 -1
l-318 3 1 57 c2 107 13 167 31 170 9 2 49 -22 89 -53 39 -30 73 -54 75 -52 2
1 -7 36 -20 77 -42 136 -46 119 44 185 44 32 80 60 80 62 0 1 -46 1 -102 0
l-102 -2 -20 69 c-20 71 -18 101 15 229 l10 37 279 0 c153 0 281 4 284 8 7 11
-6 29 -24 31 -8 1 -130 5 -271 9 l-257 7 37 115 c47 147 116 290 186 391 40
57 54 86 50 99 -4 11 -10 20 -15 20 -5 0 -29 -30 -53 -67z"/>
<path d="M3460 3249 c0 -5 7 -41 16 -79 8 -37 21 -103 27 -146 l12 -79 109 -5
110 -5 -80 -59 c-43 -33 -80 -60 -82 -62 -2 -1 10 -50 26 -108 16 -58 27 -108
24 -111 -3 -3 -20 6 -38 20 -18 14 -35 25 -39 25 -7 0 -3 -127 5 -140 4 -7
142 -9 381 -8 l374 3 -3 85 c-6 208 -48 364 -159 603 l-36 77 -324 0 c-219 0
-323 -3 -323 -11z"/>
<path d="M2834 2422 c-8 -5 -3 -37 18 -111 16 -57 26 -106 24 -109 -5 -4 -57
31 -125 85 -16 12 -31 20 -35 16 -3 -3 -6 -147 -6 -320 l0 -313 332 2 332 3
18 70 c23 91 23 91 -13 61 -27 -23 -49 -33 -49 -23 0 2 13 48 30 103 16 54 30
102 30 106 0 5 -35 34 -77 65 l-78 58 102 3 103 3 14 52 c8 29 18 98 22 155
l7 102 -319 0 c-176 0 -324 -4 -330 -8z"/>
<path d="M3546 2422 c-11 -19 -7 -209 6 -252 l14 -45 113 -5 114 -5 -85 -59
-86 -58 29 -107 c16 -58 29 -107 29 -108 0 -12 -29 6 -93 57 -41 33 -80 60
-86 60 -6 0 -13 -10 -16 -22 -28 -123 -45 -200 -45 -203 0 -3 150 -5 333 -5
l332 0 34 73 c106 227 155 405 163 592 l3 90 -377 3 c-207 1 -379 -1 -382 -6z"/>
<path d="M2712 1238 l3 -373 38 2 c48 3 182 72 241 124 86 76 229 284 289 419
22 51 67 179 67 192 0 4 -144 8 -320 8 l-320 0 2 -372z"/>
<path d="M3420 1598 c0 -32 -93 -237 -165 -368 -70 -127 -92 -157 -175 -241
-52 -53 -104 -101 -115 -107 -38 -20 -8 -21 80 -2 176 37 355 110 494 200 97
63 248 186 316 257 60 65 205 251 205 265 0 5 -144 8 -320 8 -249 0 -320 -3
-320 -12z"/>
<path d="M3986 998 c-13 -19 -14 -25 -3 -36 11 -10 19 -11 40 -1 36 16 48 2
18 -22 -21 -17 -22 -19 -4 -19 25 0 47 42 30 59 -14 14 -40 14 -55 -1 -6 -6
-15 -8 -19 -4 -4 4 3 16 17 26 20 15 21 20 8 20 -9 0 -24 -10 -32 -22z"/>
<path d="M3915 938 c-6 -15 29 -108 41 -108 3 0 3 7 0 16 -8 21 11 44 37 44
24 0 17 8 -36 39 -30 18 -38 20 -42 9z m43 -37 c3 -8 -1 -12 -9 -9 -7 2 -15
10 -17 17 -3 8 1 12 9 9 7 -2 15 -10 17 -17z"/>
<path d="M1486 856 c-32 -43 -32 -47 -1 -76 30 -28 34 -16 5 15 -17 19 -18 24
-7 34 11 9 17 8 27 -4 7 -8 17 -15 23 -15 6 0 1 10 -11 23 -28 30 -18 41 17
19 l26 -17 -16 24 c-23 36 -33 36 -63 -3z"/>
<path d="M3846 872 c-3 -5 1 -18 9 -28 21 -28 18 -35 -11 -24 -51 20 -57 13
-27 -30 27 -37 43 -50 43 -32 0 4 -5 13 -12 20 -17 17 -3 25 22 12 37 -20 41
2 11 49 -16 23 -31 39 -35 33z"/>
<path d="M1566 803 c-29 -42 -26 -58 4 -22 l20 24 -7 -47 c-7 -58 4 -61 42
-12 31 40 25 62 -6 24 l-21 -25 6 42 c8 56 -7 62 -38 16z"/>
<path d="M3696 799 c-28 -22 -35 -42 -12 -33 8 3 23 -9 37 -32 26 -43 38 -31
14 16 -9 17 -13 40 -10 50 8 25 4 25 -29 -1z"/>
<path d="M3760 810 c0 -18 54 -93 58 -81 2 7 -8 30 -22 51 -27 41 -36 48 -36
30z"/>
<path d="M1676 766 c3 -15 -1 -34 -11 -50 -9 -14 -15 -31 -13 -37 2 -7 14 4
26 24 14 25 26 35 37 31 26 -10 17 11 -15 35 l-31 22 7 -25z"/>
<path d="M3645 743 c22 -53 20 -56 -15 -38 -35 18 -45 15 -36 -12 10 -29 44
-68 52 -60 4 4 2 13 -4 19 -7 7 -12 18 -12 25 0 11 6 10 30 -2 36 -18 38 -9
10 45 -20 40 -39 56 -25 23z"/>
<path d="M1736 713 c-28 -40 -32 -53 -16 -53 11 0 54 79 47 87 -3 2 -17 -13
-31 -34z"/>
<path d="M1772 685 l-21 -44 22 -16 c29 -21 43 -19 61 7 21 30 20 61 -2 81
-28 25 -36 21 -60 -28z m56 12 c25 -30 -15 -80 -44 -56 -11 9 -11 16 2 40 16
32 26 36 42 16z"/>
<path d="M3528 694 c-16 -8 -28 -17 -28 -20 0 -9 40 -84 46 -84 12 0 65 32 61
37 -3 2 -15 -1 -27 -7 -17 -9 -25 -9 -34 0 -8 8 -5 16 14 30 14 11 20 20 15
20 -6 0 -16 -5 -22 -11 -11 -11 -33 -5 -33 9 0 4 12 15 28 24 33 21 17 23 -20
2z"/>
<path d="M1875 629 c-22 -22 -33 -40 -25 -39 30 4 40 -1 54 -27 14 -27 14 -27
21 30 10 78 -2 86 -50 36z m32 -26 c-3 -3 -11 -2 -17 2 -8 5 -7 11 2 22 12 15
13 14 16 -1 2 -10 1 -20 -1 -23z"/>
<path d="M3422 638 c-17 -17 -15 -49 4 -76 19 -27 51 -26 70 3 17 26 3 51 -22
40 -18 -8 -18 -8 -1 -12 26 -7 15 -28 -14 -28 -20 0 -25 6 -27 33 -3 26 1 34
20 41 21 9 21 10 3 10 -12 1 -26 -4 -33 -11z"/>
<path d="M1965 604 c-18 -44 -19 -56 -3 -72 29 -29 78 3 78 51 0 23 -31 57
-52 57 -4 0 -15 -16 -23 -36z m55 1 c11 -13 11 -20 0 -40 -25 -47 -60 -24 -40
26 14 33 22 36 40 14z"/>
<path d="M3333 610 c-27 -11 -28 -27 -9 -75 17 -41 29 -46 20 -10 -7 29 2 31
34 9 28 -19 45 -8 18 11 -10 8 -16 20 -13 27 5 15 -10 48 -21 47 -4 0 -17 -4
-29 -9z m37 -24 c0 -8 -8 -17 -17 -20 -20 -8 -37 15 -20 26 19 12 37 9 37 -6z"/>
<path d="M2069 573 c-24 -64 -23 -77 10 -90 17 -6 31 -7 31 -3 0 5 -9 12 -20
15 -30 10 -26 39 4 31 34 -8 41 9 9 23 -18 8 -23 15 -16 22 8 8 17 7 32 0 12
-7 21 -8 21 -3 0 8 -42 32 -56 32 -2 0 -9 -12 -15 -27z"/>
<path d="M3232 578 c-14 -14 -16 -118 -2 -118 6 0 10 7 10 15 0 21 34 37 48
23 7 -7 14 -9 18 -5 5 5 -21 46 -56 90 -3 4 -11 2 -18 -5z m31 -42 c3 -8 -1
-17 -9 -20 -9 -4 -14 1 -14 14 0 23 15 27 23 6z"/>
<path d="M2166 553 c-4 -10 2 -25 16 -40 17 -19 19 -26 9 -36 -10 -9 -15 -8
-27 7 -11 16 -14 17 -14 4 0 -16 20 -28 46 -28 26 0 28 30 4 55 -26 28 -19 46
10 27 22 -13 27 -3 8 16 -17 17 -45 15 -52 -5z"/>
<path d="M3092 541 c-21 -13 -10 -44 18 -51 32 -7 34 -36 3 -33 -13 2 -23 -2
-23 -7 0 -16 46 -12 60 5 17 20 6 43 -21 47 -30 4 -37 28 -9 28 12 0 18 5 15
10 -8 12 -25 13 -43 1z"/>
<path d="M2293 510 c4 -18 7 -43 7 -56 0 -13 4 -24 10 -24 12 0 64 89 57 96
-3 3 -13 -8 -22 -25 -20 -39 -35 -40 -35 -2 0 17 -5 33 -12 37 -8 5 -9 -2 -5
-26z"/>
<path d="M2991 480 c-14 -63 -14 -70 -1 -70 6 0 10 6 10 14 0 18 30 30 44 16
24 -24 25 -6 1 40 -14 28 -29 50 -34 50 -5 0 -14 -23 -20 -50z m39 -12 c0 -5
-4 -8 -10 -8 -5 0 -10 10 -10 23 0 18 2 19 10 7 5 -8 10 -18 10 -22z"/>
<path d="M2382 474 c-13 -26 -20 -49 -17 -52 3 -4 10 0 14 7 9 14 51 6 51 -10
0 -5 5 -9 11 -9 7 0 9 13 5 38 -16 88 -31 95 -64 26z m38 -6 c0 -16 -3 -19
-11 -11 -6 6 -8 16 -5 22 11 17 16 13 16 -11z"/>
<path d="M2928 483 l3 -38 -20 25 c-11 14 -21 28 -21 33 0 13 -20 7 -20 -6 0
-13 63 -87 74 -87 8 0 8 74 0 94 -11 29 -20 17 -16 -21z"/>
<path d="M2487 502 c-3 -4 -7 -27 -8 -52 l-4 -45 35 -2 c19 -1 26 1 15 4 -31
8 -34 15 -26 61 7 37 1 56 -12 34z"/>
<path d="M2576 465 c-9 -56 -3 -65 37 -64 30 1 30 1 7 8 -27 7 -35 35 -10 37
31 2 34 6 11 13 -34 9 -39 31 -7 31 14 0 26 5 26 10 0 6 -13 10 -29 10 -26 0
-29 -4 -35 -45z"/>
<path d="M2672 478 c2 -13 13 -27 26 -33 24 -10 30 -35 9 -35 -7 0 -19 6 -26
13 -11 10 -13 9 -9 -3 7 -22 57 -25 65 -4 4 12 -2 24 -22 40 -16 13 -26 26
-22 30 3 4 13 1 22 -6 17 -14 31 -8 20 9 -3 6 -20 11 -36 11 -26 0 -30 -3 -27
-22z"/>
<path d="M2778 450 c-14 -44 -10 -68 7 -40 3 6 15 10 26 10 10 0 19 -4 19 -10
0 -5 4 -10 10 -10 12 0 -21 92 -36 97 -5 2 -17 -19 -26 -47z m36 5 c3 -8 1
-15 -4 -15 -6 0 -10 7 -10 15 0 8 2 15 4 15 2 0 6 -7 10 -15z"/>
<path d="M2882 430 c0 -14 2 -19 5 -12 2 6 2 18 0 25 -3 6 -5 1 -5 -13z"/>
</g>
</svg>
